<svg width="36" height="36" viewBox="0 0 36 36" fill="none" xmlns="http://www.w3.org/2000/svg">
<path fill-rule="evenodd" clip-rule="evenodd" d="M29.0543 18.4159V20.4967C29.0543 21.1535 28.5177 21.6907 27.8618 21.6907H21.3925V28.1675C21.3925 28.8241 20.8559 29.3615 20.2001 29.3615H15.1401C14.4843 29.3615 13.9477 28.8241 13.9477 28.1675V21.6907H7.47832C6.8225 21.6907 6.28589 21.1535 6.28589 20.4967V18.4159H13.9477C14.1168 18.4159 14.262 18.3301 14.3434 18.1817L15.5836 15.9237L17.3375 20.9542C17.4026 21.1409 17.572 21.2598 17.7695 21.2574C17.967 21.2549 18.1334 21.1319 18.1939 20.9436L19.7969 15.9539L21.0205 18.1817C21.1019 18.3301 21.2472 18.4159 21.4163 18.4159H29.0543V18.4159Z" fill="#80CBD3"/>
<path fill-rule="evenodd" clip-rule="evenodd" d="M29.0543 15.4309V17.5117H21.6834L20.0836 14.5989C19.9947 14.4373 19.8279 14.3491 19.6446 14.3667C19.461 14.3844 19.3142 14.5027 19.2579 14.6784L17.7463 19.3829L16.1026 14.6678C16.0426 14.4955 15.8956 14.3816 15.7139 14.3663C15.5321 14.351 15.3684 14.439 15.2804 14.5989L13.6805 17.5117H6.30621L6.28589 17.5099V15.4309C6.28589 14.7742 6.8225 14.2371 7.47832 14.2371H13.9477V7.76009C13.9477 7.10349 14.4843 6.5661 15.1401 6.5661H20.2001C20.8559 6.5661 21.3925 7.10349 21.3925 7.76009V14.2371H27.8618C28.5177 14.2371 29.0543 14.7742 29.0543 15.4309V15.4309Z" fill="#E1C7AF"/>
<path fill-rule="evenodd" clip-rule="evenodd" d="M21.3829 33.8813C2.30171 37.1978 -5.89218 12.9895 10.2933 4.09015C10.2933 6.76724 10.2933 9.44448 10.2933 12.1217C6.7882 9.58403 6.24412 10.0798 5.35555 10.9524L5.35017 10.9606C-0.781248 20.2013 5.96371 35.1188 21.3829 32.5745V33.8813V33.8813Z" fill="#F0E3C3"/>
<path fill-rule="evenodd" clip-rule="evenodd" d="M14.6171 2.12682C33.6982 -1.18967 41.8922 23.0186 25.7067 31.9179C25.7067 29.2408 25.7067 26.5635 25.7067 23.8864C29.2117 26.4241 29.7558 25.9281 30.6444 25.0557L30.6498 25.0474C36.7813 15.8068 30.0364 0.889303 14.6171 3.43358V2.12682V2.12682Z" fill="#F0E3C3"/>
<path fill-rule="evenodd" clip-rule="evenodd" d="M21.4359 35.7948C16.6181 36.4251 11.7767 35.6443 7.71132 32.8795C4.24831 30.5242 1.77934 26.9912 0.660561 22.9609C-0.344536 19.3402 -0.209189 15.443 1.11157 11.9201C2.59994 7.95059 5.42177 4.81508 9.03104 2.64158L9.54464 2.33228V10.7171L8.96725 10.1447C8.06642 9.25152 6.73476 8.28084 5.39189 8.71144C4.90264 8.86833 4.37231 9.25766 4.08428 9.6902L4.08339 9.6914C1.5079 13.7865 1.00461 18.8048 2.56095 23.3688C3.74756 26.8489 6.06355 29.8434 9.19492 31.7815C12.853 34.0453 17.1398 34.5793 21.3369 33.8868L21.7308 33.8219V35.7562L21.4359 35.7948V35.7948Z" fill="#FEFEFE"/>
<path fill-rule="evenodd" clip-rule="evenodd" d="M14.5641 0.212898C19.3818 -0.417226 24.2232 0.363512 28.2885 3.1284C31.7516 5.48348 34.2207 9.01669 35.3395 13.0469C36.3444 16.6675 36.2092 20.5649 34.8883 24.0876C33.4001 28.0573 30.5783 31.1928 26.969 33.3663L26.4554 33.6756V25.2907L27.0328 25.8631C27.9335 26.7563 29.2651 27.727 30.608 27.2964C31.0974 27.1395 31.6277 26.7502 31.9157 26.3177L31.9166 26.3165C34.492 22.2212 34.9954 17.2031 33.4391 12.639C32.2525 9.15893 29.9365 6.16445 26.805 4.22637C23.147 1.96253 18.8601 1.42843 14.663 2.12107L14.269 2.18598V0.251486L14.5641 0.212898V0.212898Z" fill="#FEFEFE"/>
<path fill-rule="evenodd" clip-rule="evenodd" d="M21.392 35.4585C0.576464 38.1812 -7.25949 12.8476 9.20568 2.93237V3.66211V4.05293V9.90367C5.84769 6.57372 3.91951 9.32665 3.80224 9.50194L3.79806 9.50837L3.79657 9.51061C-3.05969 20.5824 5.19979 36.8934 21.392 34.2216V35.4585V35.4585Z" fill="#2CB7BE"/>
<path fill-rule="evenodd" clip-rule="evenodd" d="M14.608 0.549589C35.4234 -2.17327 43.2594 23.1605 26.7942 33.0757V32.3459V31.955V26.1044C30.1522 29.4342 32.0805 26.6814 32.1977 26.506L32.202 26.4997L32.2033 26.4974C39.0596 15.4256 30.8001 -0.885502 14.608 1.78635V0.549589V0.549589Z" fill="#2CB7BE"/>
<path fill-rule="evenodd" clip-rule="evenodd" d="M3.49212 28.2167C2.60714 26.3954 2.0526 24.3839 1.90515 22.2601C3.84423 29.8039 10.9763 35.9402 21.392 34.2215V35.4584C13.1626 36.5349 6.96454 33.2244 3.49212 28.2167V28.2167Z" fill="#25918B"/>
<path fill-rule="evenodd" clip-rule="evenodd" d="M32.5078 7.79134C33.3929 9.61246 33.9473 11.624 34.0948 13.7478C32.1557 6.20414 25.0238 0.0677201 14.608 1.78639V0.549624C22.8375 -0.526807 29.0355 2.78355 32.5078 7.79134Z" fill="#25918B"/>
<path fill-rule="evenodd" clip-rule="evenodd" d="M21.392 34.2215C10.974 35.9406 3.84105 29.8012 1.90391 22.2551C1.87792 21.8796 1.86462 21.5004 1.86462 21.1181C1.86462 20.9397 1.86851 20.7622 1.87433 20.5851C2.02074 21.5238 2.24945 22.4554 2.56093 23.3688C3.74754 26.8489 6.06353 29.8436 9.1949 31.7815C12.8529 34.0453 17.1858 34.5737 21.3829 33.8813L21.392 34.2215V34.2215Z" fill="#E4DDD0"/>
<path fill-rule="evenodd" clip-rule="evenodd" d="M14.608 1.78638C25.026 0.0674081 32.1588 6.20682 34.0961 13.7528C34.1221 14.1285 34.1353 14.5075 34.1353 14.8898C34.1353 15.0682 34.1314 15.2459 34.1257 15.423C33.9793 14.4843 33.7506 13.5526 33.4391 12.6392C32.2525 9.15911 29.9365 6.16449 26.805 4.22656C23.147 1.96272 18.8141 1.4343 14.617 2.12679L14.608 1.78638V1.78638Z" fill="#E4DDD0"/>
<path fill-rule="evenodd" clip-rule="evenodd" d="M1.87085 20.6741C1.96258 17.2492 3.11363 14.0888 5.00744 11.509C-0.512818 20.7779 6.26456 35.0692 21.3828 32.5745V33.8813C10.5147 35.7703 3.18205 28.7293 1.87085 20.6741V20.6741Z" fill="#DFCDA6"/>
<path fill-rule="evenodd" clip-rule="evenodd" d="M34.1292 15.3338C34.0373 18.7589 32.8863 21.9191 30.9925 24.4991C36.5129 15.2302 29.7353 0.938802 14.6171 3.43357V2.12681C25.4852 0.237783 32.818 7.27878 34.1292 15.3338V15.3338Z" fill="#DFCDA6"/>
<path fill-rule="evenodd" clip-rule="evenodd" d="M15.8745 16.7578L13.0878 21.6907H13.9477V28.1675C13.9477 28.8241 14.4843 29.3615 15.1401 29.3615H20.2001C20.8559 29.3615 21.3925 28.8241 21.3925 28.1675V21.6907H27.8618C28.5177 21.6907 29.0543 21.1535 29.0543 20.4967V18.4159H21.4163C21.2472 18.4159 21.1019 18.3301 21.0205 18.1817L19.7969 15.9539L18.1939 20.9436C18.1334 21.1319 17.967 21.2549 17.7695 21.2574C17.572 21.2598 17.4026 21.1409 17.3375 20.9542L15.8745 16.7578V16.7578Z" fill="#44BBC3"/>
<path fill-rule="evenodd" clip-rule="evenodd" d="M21.2628 7.22015L16.4662 15.7106L17.7463 19.3829L19.2578 14.6784C19.3142 14.5027 19.461 14.3844 19.6446 14.3667C19.8279 14.3491 19.9946 14.4373 20.0835 14.5989L21.6833 17.5117H29.0542V15.4309C29.0542 14.7742 28.5176 14.2371 27.8618 14.2371H21.3925V7.76009C21.3925 7.5661 21.3457 7.38243 21.2628 7.22015V7.22015Z" fill="#D4AF8C"/>
</svg>
